<?xml version="1.0" encoding="UTF-8" standalone="no"?>
<!-- Created with Inkscape (http://www.inkscape.org/) -->

<svg
   xmlns:dc="http://purl.org/dc/elements/1.1/"
   xmlns:cc="http://creativecommons.org/ns#"
   xmlns:rdf="http://www.w3.org/1999/02/22-rdf-syntax-ns#"
   xmlns:svg="http://www.w3.org/2000/svg"
   xmlns="http://www.w3.org/2000/svg"
   xmlns:sodipodi="http://sodipodi.sourceforge.net/DTD/sodipodi-0.dtd"
   xmlns:inkscape="http://www.inkscape.org/namespaces/inkscape"
   width="177.21823mm"
   height="45.957359mm"
   viewBox="0 0 177.21823 45.957359"
   version="1.1"
   id="svg8"
   inkscape:version="0.92.3 (2405546, 2018-03-11)"
   sodipodi:docname="Prosysfill.svg">
  <defs
     id="defs2" />
  <sodipodi:namedview
     id="base"
     pagecolor="#ffffff"
     bordercolor="#666666"
     borderopacity="1.0"
     inkscape:pageopacity="0.0"
     inkscape:pageshadow="2"
     inkscape:zoom="1.4"
     inkscape:cx="382.20852"
     inkscape:cy="-30.573782"
     inkscape:document-units="mm"
     inkscape:current-layer="layer1"
     showgrid="false"
     inkscape:snap-global="false"
     inkscape:window-width="1920"
     inkscape:window-height="1017"
     inkscape:window-x="991"
     inkscape:window-y="1076"
     inkscape:window-maximized="1"
     fit-margin-top="0"
     fit-margin-left="0"
     fit-margin-right="0"
     fit-margin-bottom="0" />
  <metadata
     id="metadata5">
    <rdf:RDF>
      <cc:Work
         rdf:about="">
        <dc:format>image/svg+xml</dc:format>
        <dc:type
           rdf:resource="http://purl.org/dc/dcmitype/StillImage" />
        <dc:title></dc:title>
      </cc:Work>
    </rdf:RDF>
  </metadata>
  <g
     inkscape:label="Layer 1"
     inkscape:groupmode="layer"
     id="layer1"
     transform="translate(-13.133705,-45.568077)">
    <path
       style="fill:#0a4a9b;fill-opacity:1;stroke-width:0.26458332"
       d="m 95.936043,71.39125 c -4.706691,-0.0098 -9.423479,0.0764 -10.112044,0.267684 -1.194255,0.331751 -3.028767,1.890347 -3.64939,3.10007 l -0.476972,0.92914 -0.345715,-0.834573 c -0.190207,-0.4592 -0.819907,-1.240221 -1.398881,-1.735812 -1.965794,-1.68262 -2.297975,-1.723927 -14.002764,-1.723927 h -10.53579 v 2.15646 2.156458 L 54.638824,74.636013 C 54.21221,74.047092 53.459976,73.257539 52.967091,72.881598 51.070029,71.434639 50.690492,71.393832 39.109024,71.393832 H 28.426988 v 10.063469 10.063466 l 2.711979,-0.0754 2.711979,-0.0754 0.07441,-3.0949 0.07441,-3.09491 8.259961,-0.0801 8.259961,-0.0801 1.322916,-0.7028 c 1.305179,-0.69351 2.279018,-1.583 3.134175,-2.861846 0.414012,-0.61913 0.4377,-0.36695 0.4377,4.705656 v 5.35988 l 2.711979,-0.0754 2.711979,-0.0754 0.07338,-3.63802 0.0739,-3.63802 h 4.475178 4.475179 l 3.082499,3.70416 3.081983,3.70417 h 3.191536 c 3.017486,0 3.169724,-0.0253 2.786912,-0.46302 -0.222695,-0.25466 -1.669735,-1.89177 -3.215309,-3.63802 -2.645347,-2.98881 -2.774858,-3.18798 -2.215367,-3.40289 2.167676,-0.83267 2.835079,-1.21794 3.835424,-2.21227 l 1.124479,-1.117766 v 3.126426 c 0,2.76197 0.07175,3.2626 0.615466,4.29276 0.825997,1.56498 2.4624,2.77304 4.261754,3.14658 0.964732,0.20025 4.391348,0.27349 10.257772,0.21859 8.606157,-0.0805 8.838707,-0.0967 10.060877,-0.69866 1.36874,-0.67411 2.5961,-2.05526 3.0732,-3.45819 0.19135,-0.56264 0.30373,-2.8411 0.29972,-6.085416 -0.005,-4.465094 -0.0733,-5.335132 -0.49299,-6.259051 -0.6001,-1.321181 -2.32753,-2.839651 -3.69693,-3.249933 -0.64774,-0.194088 -5.34438,-0.300233 -10.051063,-0.310057 z m 35.516177,0.0026 c -13.66783,2e-6 -13.71426,0.0049 -15.71583,1.590085 -2.70414,2.14173 -2.81115,6.198206 -0.2279,8.649082 1.78881,1.69715 2.19366,1.76897 10.90218,1.92391 7.41965,0.13201 7.91571,0.17093 8.26823,0.65371 0.47848,0.65513 0.47808,1.49285 -5.3e-4,2.14767 -0.35988,0.49239 -0.8405,0.51678 -11.64167,0.58808 -9.83395,0.0649 -11.26598,0.12545 -11.26598,0.47387 0,0.56985 -0.91148,2.27973 -1.74046,3.26492 l -0.70745,0.84026 13.1961,-0.0775 c 13.08101,-0.0771 13.20586,-0.083 14.25494,-0.66714 2.04117,-1.13658 3.13387,-2.48335 3.56102,-4.38939 0.60152,-2.68409 -0.8728,-5.463876 -3.622,-6.829556 -1.23833,-0.615193 -1.40355,-0.627356 -8.75916,-0.627356 h -7.49721 l -0.50643,-0.62425 c -0.64394,-0.794171 -0.63869,-1.22786 0.0227,-1.889292 0.51063,-0.510659 0.88197,-0.529167 10.60348,-0.529167 h 10.07432 l 4.47777,4.150655 4.47776,4.150646 v 3.65456 3.65455 h 2.77812 2.77813 v -3.67574 -3.67574 l 4.02456,-3.743956 4.02508,-3.74396 0.28887,1.400431 c 0.50669,2.457999 1.35038,3.579775 3.56774,4.743895 1.16132,0.6097 1.38415,0.6273 9.05888,0.7121 l 7.86825,0.0868 0.53227,0.67644 c 0.69384,0.88208 0.6711,1.28433 -0.11731,2.07274 l -0.64957,0.64906 h -6.90862 c -4.36374,0 -7.10137,-0.10333 -7.43262,-0.28061 -0.28844,-0.15437 -0.63502,-0.57108 -0.76998,-0.92604 -0.23639,-0.62177 -0.33783,-0.64544 -2.76572,-0.64544 -2.43781,0 -2.51916,0.0194 -2.51717,0.59532 0.005,1.19451 1.23446,3.28384 2.50166,4.25142 1.84981,1.41247 2.98063,1.5515 11.84527,1.4552 7.49507,-0.0814 7.78308,-0.10402 8.99894,-0.7028 2.26017,-1.11306 3.63905,-3.30154 3.63905,-5.77639 0,-1.37668 -1.11689,-3.571356 -2.26188,-4.444686 -1.98462,-1.513746 -2.26912,-1.55706 -10.39316,-1.577161 -7.10255,-0.01757 -7.51512,-0.0456 -7.87135,-0.532267 -0.49869,-0.681231 -0.47524,-1.451177 0.062,-2.044838 0.40137,-0.44355 0.97498,-0.484209 6.87917,-0.484209 6.0885,3e-6 6.47045,0.02899 6.97063,0.529167 0.29104,0.291042 0.52917,0.648232 0.52917,0.79375 0,0.158951 1.06815,0.264583 2.67528,0.264583 h 2.67529 l -0.18448,-0.992187 c -0.25508,-1.373159 -1.07205,-2.743687 -2.14561,-3.600297 -1.84024,-1.46839 -2.0799,-1.492932 -14.76499,-1.492932 h -11.67784 l -4.09432,4.101041 c -2.25205,2.255571 -4.21659,4.10104 -4.36563,4.10104 -0.14905,1e-5 -2.11357,-1.845469 -4.36562,-4.10104 l -4.09484,-4.101041 z m -97.468983,4.497916 h 7.428487 7.428487 l 0.773596,0.773597 c 0.527844,0.527852 0.773597,1.038135 0.773597,1.607653 0,0.569511 -0.245753,1.080335 -0.773597,1.608175 l -0.773596,0.77308 h -7.428487 -7.428487 v -2.381255 z m 26.9875,0 h 7.21713 c 8.237931,3e-6 8.393287,0.03427 8.393287,1.852084 0,0.762711 -0.151932,1.134734 -0.588079,1.440221 -0.49733,0.34837 -1.701324,0.41186 -7.805208,0.41186 h -7.21713 v -1.852035 z m 27.492378,0 h 7.432622 7.432103 l 0.64957,0.649574 c 0.63363,0.633621 0.64958,0.749519 0.64958,4.748031 0,3.950096 -0.0231,4.125016 -0.63821,4.840526 l -0.6382,0.74207 -7.10086,0.0517 c -3.905485,0.0283 -7.279452,-0.0165 -7.497733,-0.0997 -0.218281,-0.0832 -0.664766,-0.3951 -0.992188,-0.69299 -0.569592,-0.51821 -0.595312,-0.72289 -0.595312,-4.740786 0,-4.105682 0.0141,-4.213841 0.649054,-4.848801 z"
       id="path1005"
       inkscape:connector-curvature="0" />
    <path
       style="fill:#ff0000;fill-opacity:1;stroke-width:0.99999994"
       d="m 160.9082,172.22656 c -19.91108,0.0249 -28.32939,1.47626 -43.28515,7.46485 -28.045999,11.23014 -48.537562,33.06224 -61.375003,65.39062 -7.290308,18.35913 -8.738782,45.26468 -3.396485,63.10352 1.409186,4.70551 1.743219,5.05882 4.958985,5.27539 1.895936,0.12775 3.659626,-0.11604 3.919922,-0.54297 0.260296,-0.42694 -0.133042,-4.15234 -0.873047,-8.27735 -0.232661,-1.29693 -0.423744,-2.63623 -0.595703,-3.99414 0.566056,0.0479 1.576766,-0.0479 3.236328,-0.27539 2.499405,-0.34253 6.154364,-0.32204 8.121094,0.0469 l 3.576171,0.67187 v 5.78711 c 0,3.18338 0.299375,6.08847 0.666016,6.45508 0.884912,0.8849 4.5511,0.82286 5.939453,-0.0996 0.60802,-0.40407 1.342847,-2.89355 1.632813,-5.5332 0.289965,-2.63967 0.769524,-5.04278 1.066406,-5.33984 0.296882,-0.29689 3.99816,0.17673 8.224609,1.05078 4.226442,0.87402 8.085001,1.58789 8.576171,1.58789 0.49117,0 0.89453,-1.75028 0.89453,-3.89063 0,-4.37548 -0.29333,-4.53834 -10.32031,-5.7168 -3.154987,-0.3708 -5.924955,-0.9765 -6.154297,-1.34765 -1.0054,-1.62675 8.6953,-34.44456 10.513672,-35.56836 0.484649,-0.29953 3.586399,0.82132 6.892575,2.49023 5.65852,2.85646 6.68805,3.03321 17.54493,3.03321 h 11.5332 l 6.18359,-12.41407 6.1836,-12.41406 10.06054,5.0293 c 5.53365,2.76604 10.20125,5.15394 10.3711,5.30664 0.16985,0.15254 -1.06763,3.31307 -2.75,7.02344 -1.68236,3.7104 -3.0586,6.93308 -3.0586,7.16211 0,0.22941 2.08043,0.27914 4.62305,0.11132 4.53665,-0.29911 4.65924,-0.39707 6.58008,-5.30078 1.07656,-2.74831 2.08396,-5.12314 2.23828,-5.27734 0.15432,-0.15432 4.34625,1.08094 9.3164,2.74609 4.97014,1.66515 9.81356,3.02735 10.76368,3.02735 1.35569,0 1.60813,0.59993 1.17187,2.78125 -0.50241,2.51206 -0.12265,2.97908 3.94922,4.86718 l 4.50586,2.08985 0.92578,-2.4336 c 0.50896,-1.33867 0.92578,-2.90797 0.92578,-3.48632 0,-0.64781 0.86405,-0.76041 2.25,-0.29493 1.2375,0.41564 10.87135,0.95872 21.40821,1.20704 17.12444,0.40362 19.56575,0.25655 23,-1.38868 l 3.84179,-1.84179 -8.09961,-0.28711 -8.09961,-0.28906 -0.62109,-10.71094 c -0.52476,-9.06615 -1.95606,-16.69897 -5.21094,-27.7793 -0.44726,-1.52255 0.005,-2.35959 1.71289,-3.18164 2.26001,-1.08745 2.24114,-1.11783 -0.73242,-1.18359 -2.61578,-0.058 -3.37515,-0.73274 -5.31836,-4.73243 -2.90643,-5.9823 -10.05552,-15.98183 -14.18359,-19.83593 -3.10868,-2.90233 -3.09075,-2.83727 0.57617,2 3.79082,5.0007 8.77977,14.87891 10.0293,19.85742 0.74814,2.98083 0.2033,3.11939 -7.89258,2.00976 -4.38331,-0.60083 -4.64838,-0.81788 -5.17969,-4.25 -1.53421,-9.91067 -5.85422,-24.07739 -6.99414,-22.9375 -0.21755,0.21755 -0.006,3.15518 0.4707,6.52735 0.47667,3.37217 0.6243,8.82164 0.32618,12.10937 l -0.54297,5.97657 -7.03321,-2.39063 c -3.86804,-1.31562 -7.21878,-2.57994 -7.44726,-2.80859 -0.22847,-0.22848 1.41935,-5.84516 3.66211,-12.48242 2.24276,-6.63731 4.05412,-12.64071 4.02539,-13.33985 -0.0287,-0.69914 -2.95736,4.46603 -6.50781,11.47852 -3.55047,7.0125 -6.68807,12.75 -6.97266,12.75 -0.2846,1e-5 -3.71468,-1.60994 -7.62305,-3.57813 l -7.10742,-3.57812 4.38281,-4.62305 c 5.73191,-6.04936 6.55911,-6.77424 11.88086,-10.38867 4.11569,-2.79527 4.24379,-2.99872 1.5,-2.39649 -4.47583,0.98245 -13.0276,5.32129 -18.06445,9.16602 -2.4495,1.86973 -4.92592,3.39844 -5.50391,3.39844 -1.21741,1e-5 -9.93164,-7.09641 -9.93164,-8.08789 0,-1.49772 15.72496,-7.04941 23.5,-8.29688 1.65,-0.26457 -0.6,-0.29875 -5,-0.0762 -4.4,0.22254 -11.15,1.30314 -15,2.40234 l -7,1.99805 -1.89843,-2.21875 -1.89844,-2.2207 0.63086,2.60937 c 0.58292,2.4065 0.11864,2.86989 -6.00586,5.97852 -8.05757,4.08982 -13.95192,8.39287 -21.64844,15.80664 l -5.82031,5.60547 -5.42969,-5.79493 c -3.7033,-3.95311 -5.42331,-5.2252 -5.4082,-4 0.0283,2.33027 3.62799,10.25256 5.69726,12.53907 1.48626,1.64231 1.45293,1.94954 -0.44726,4.01758 -3.05681,3.32689 -10.420356,15.1248 -15.283206,24.48828 -2.356517,4.53752 -4.639616,8.25 -5.072266,8.25 -0.43265,0 -2.05326,-0.48836 -3.601562,-1.08594 -17.695352,-6.82987 -18.805944,-6.80769 -7.083985,0.14453 3.997939,2.37116 7.766874,4.67918 8.375,5.12891 0.778636,0.57582 0.296049,3.11062 -1.628906,8.5664 -2.531565,7.17506 -6.072492,21.62389 -7.474609,30.4961 -0.520037,3.29061 -0.93271,3.75 -3.369141,3.75 -3.680576,0 -11.70598,2.78051 -13.191406,4.57031 -1.849624,-16.2506 0.491973,-36.25272 6.283203,-52.12109 1.585126,-4.34332 5.642294,-12.53299 9.017578,-18.19922 21.395781,-35.91799 52.68658,-54.60742 91.42773,-54.60743 9.55408,0 23.34731,1.59148 31.04297,3.58008 1.72242,0.44505 1.77009,0.37153 0.34571,-0.52734 -0.90968,-0.57404 -5.63467,-2.04494 -10.5,-3.26758 -7.53513,-1.89347 -11.51315,-2.21812 -26.84571,-2.19922 z m 45.11524,8.99219 c -0.29307,0.1437 2.14005,1.95489 7.70703,5.85156 24.44403,17.10985 40.30606,41.52862 44.70312,68.82031 l 1.24805,7.75 h 3.86328 c 3.43194,0 3.86328,-0.27198 3.86328,-2.44726 0,-4.152 -4.95652,-18.5921 -9.6582,-28.14063 -10.13384,-20.58046 -29.85508,-41.13428 -48.3418,-50.38085 -2.05019,-1.02547 -3.20891,-1.53935 -3.38476,-1.45313 z m -56.4375,7.6543 4.76172,5.3125 c 2.61864,2.92215 4.77892,5.5565 4.80273,5.85547 0.0238,0.29881 -2.23476,3.2238 -5.01953,6.5 -2.78477,3.2762 -7.10636,9.21952 -9.60352,13.20703 -2.49715,3.98748 -4.60496,7.23582 -4.68554,7.2207 -1.10028,-0.22118 -17.13031,-11.92227 -17.38672,-12.69141 -0.51,-1.53003 13.12846,-15.17467 20.68554,-20.69531 z m 16.6289,16.11328 7.99024,4.01758 c 4.39422,2.20936 7.99023,4.17115 7.99023,4.35937 0,0.1883 -2.91797,6.48274 -6.48437,13.98828 -3.5664,7.50558 -7.0539,13.61605 -7.75,13.58203 -1.60184,-0.0819 -16.64772,-7.41724 -18.01172,-8.78125 -0.98868,-0.98868 5.62319,-12.47317 13.21484,-22.95312 z m 21.11328,10.28906 8.1836,2.51953 c 4.50083,1.38573 8.3444,2.64741 8.54101,2.80274 0.4651,0.36778 -3.47087,18.73225 -5.42382,25.30859 -0.83176,2.80082 -2.05647,5.0693 -2.72266,5.03906 -0.66619,-0.0295 -5.26094,-1.53649 -10.21094,-3.34961 -6.03422,-2.21023 -8.89314,-3.74968 -8.67578,-4.66992 0.17832,-0.75489 2.57055,-7.28538 5.31641,-14.51172 z m -70.5039,5.72266 c 0.82219,1e-5 18.37109,12.48159 18.37109,13.0664 0,0.35951 -2.95302,6.79294 -6.56054,14.29493 -3.60751,7.50198 -6.645,13.59014 -6.75,13.52929 -0.105,-0.0609 -4.46446,-1.85625 -9.68946,-3.98828 -5.225,-2.13203 -10.54589,-4.33656 -11.82422,-4.90039 l -2.324215,-1.02539 4.748045,-8.73828 c 4.50212,-8.28427 13.30472,-22.23828 14.0293,-22.23828 z m 95.51367,0 h 7.36719 7.36719 l 0.81054,4.75 c 0.4462,2.61249 0.8125,10.82501 0.8125,18.25 v 13.5 l -3,0.16992 c -3.34712,0.18784 -16.59347,-2.45466 -17.73242,-3.53711 -0.40216,-0.38219 0.13464,-5.40623 1.19141,-11.16406 1.05678,-5.75785 2.20528,-13.05623 2.55273,-16.21875 z"
       transform="scale(0.26458333)"
       id="path1003"
       inkscape:connector-curvature="0" />
  </g>
</svg>
